<?xml version="1.0"?>
<svg width="800" height="800" xmlns="http://www.w3.org/2000/svg" xmlns:svg="http://www.w3.org/2000/svg" preserveAspectRatio="xMidYMid meet" version="1.0">
 <g class="layer">
  <title>Layer 1</title>
  <!-- Elemento principal em azul primário -->
  <path d="m337.76,186.03c-45.6,11.19 -78.91,29.16 -113.52,61.26c-76,69.51 -93.46,167.29 -45.6,250.94c20.37,35.34 47.22,55.96 83.44,63.62c32.66,6.77 70.83,-9.42 121.28,-51.54c24.58,-20.62 68.56,-61.26 80.2,-74.81l6.47,-7.36l8.73,26.51c16.49,51.25 21.67,63.32 26.84,65.97c13.26,6.19 16.49,0.88 63.06,-105.73c44.31,-101.32 57.57,-133.42 69.86,-169.35c11.32,-32.69 12.29,-44.18 4.85,-46.83c-4.85,-1.77 -54.98,19.44 -72.44,30.63c-13.91,8.84 -57.57,30.63 -124.51,61.85c-71.8,33.58 -123.22,58.02 -131.63,63.03c-8.09,4.42 -10.03,10.9 -4.53,16.2c5.17,4.42 54.66,11.49 86.03,12.08c31.69,0.59 32.34,2.06 12.61,23.86c-25.23,27.98 -79.88,76.87 -97.99,87.47c-13.26,7.95 -19.08,9.42 -34.93,9.42c-17.46,0 -19.73,-0.88 -32.99,-11.78c-23.93,-20.03 -39.78,-63.03 -36.54,-98.67c6.47,-69.8 59.83,-130.47 134.86,-153.45c27.17,-8.54 91.85,-7.66 117.07,1.47l18.43,6.48l29.11,-13.25c33.31,-15.32 34.28,-18.56 10.35,-29.45c-52.39,-24.45 -125.16,-31.81 -178.52,-18.56z" fill="#2563EB" id="svg_2"/>
  <!-- Elemento decorativo em ciano -->
  <path d="m614.27,370.11c-14.88,30.04 -20.37,45.36 -21.99,60.08c-8.41,70.1 -56.27,121.64 -139.06,149.03c-20.37,6.77 -27.81,7.66 -69.86,7.66l-46.89,0.29l-21.99,11.78c-31.37,16.79 -29.75,21.79 11.64,34.46c14.55,4.42 31.05,6.48 59.51,7.66c35.57,1.18 42.69,0.29 69.21,-6.48c70.83,-18.56 130.98,-61.56 162.67,-116.34c23.61,-40.94 25.87,-51.84 25.87,-110.74c-0.32,-37.7 -1.62,-56.55 -4.85,-65.38l-4.53,-12.37l-19.73,40.35z" fill="#2563EB" id="svg_3"/>
 </g>
</svg>