<svg xmlns="http://www.w3.org/2000/svg" xmlns:xlink="http://www.w3.org/1999/xlink" aria-hidden="true" role="img" class="iconify iconify--logos" viewBox="229.47608359941773 162.0227892287234 91.04783280116453 101.19049202127661"><g data-paper-data="{&quot;fillRule&quot;:&quot;nonzero&quot;,&quot;fillRuleOriginal&quot;:&quot;evenodd&quot;,&quot;isIcon&quot;:true,&quot;iconStyle&quot;:&quot;standalone&quot;,&quot;selectedEffects&quot;:{&quot;container&quot;:&quot;hexagon_simple_filled_rounded_upright&quot;,&quot;transformation&quot;:&quot;&quot;,&quot;pattern&quot;:&quot;&quot;},&quot;bounds&quot;:{&quot;x&quot;:229.47608359941773,&quot;y&quot;:162.0227892287234,&quot;width&quot;:91.04783280116453,&quot;height&quot;:101.19049202127661},&quot;widthRatioIconToContainer&quot;:0.8998396522532426,&quot;heightRatioIconToContainer&quot;:0.8096435668376202,&quot;relativeBoundsIconToContainer&quot;:{&quot;top&quot;:-4.0551026521435624e-7,&quot;left&quot;:1.3713033429024418e-7},&quot;iconType&quot;:&quot;icon&quot;,&quot;rawIconId&quot;:&quot;1720505&quot;,&quot;isDetailed&quot;:false,&quot;suitableAsStandaloneIcon&quot;:true}" fill-rule="nonzero"><path d="M268.17141,163.99403c4.55239,-2.62833 9.10478,-2.62833 13.65717,0l31.86674,18.39827c4.55239,2.62833 6.82859,6.57081 6.82859,11.82746v36.79654c0,5.25665 -2.27619,9.19914 -6.82859,11.82746l-31.86674,18.39827c-4.55239,2.62833 -9.10478,2.62833 -13.65717,0l-31.86674,-18.39827c-4.55239,-2.62833 -6.82859,-6.57081 -6.82859,-11.82746v-36.79654c0,-5.25665 2.27619,-9.19914 6.82859,-11.82746zM315.96424,212.61802c0,-22.60545 -18.3589,-40.96413 -40.96435,-40.96413c-22.60545,0 -40.96407,18.35868 -40.9641,40.96413c-0.00001,22.60552 18.35865,40.9641 40.9641,40.9641c22.60551,0 40.96435,-18.35858 40.96435,-40.9641zM261.3474,226.28715c0,2.18489 -3.41391,2.18489 -3.41391,0v-27.31161c0,-0.95587 0.68438,-1.77367 1.64024,-1.77367c0.95593,0 1.77367,0.8178 1.77367,1.77367zM302.31466,226.28715c0,2.32147 -3.41352,2.32147 -3.41352,0v-27.31161c0,-0.95587 0.68064,-1.77367 1.63676,-1.77367c0.95612,0 1.77676,0.8178 1.77676,1.77367zM276.64355,224.51349c0.13652,2.32147 -3.41397,2.32147 -3.41397,0v-23.76099c0,-0.95593 0.81774,-1.77696 1.77367,-1.77696c0.95593,0 1.77682,0.82102 1.64031,1.77696zM266.40169,221.23622c0,2.18489 -3.2774,2.18489 -3.41397,0v-17.20646c0,-0.95593 0.81774,-1.64031 1.77367,-1.64031c0.95593,-0.13658 1.77682,0.68438 1.64031,1.64031zM297.26063,221.23622c-0.13658,2.18489 -3.41397,2.18489 -3.41397,0v-17.20646c-0.13652,-0.95593 0.68438,-1.64031 1.64031,-1.64031c0.95593,-0.13658 1.77367,0.68438 1.77367,1.64031zM281.83112,219.45926c0,2.32147 -3.41391,2.32147 -3.41391,0v-13.65584c0,-0.95593 0.68438,-1.77367 1.64024,-1.77367c0.95593,0 1.77367,0.81774 1.77367,1.77367zM256.15982,217.82231c0,2.18496 -3.41397,2.18496 -3.41397,0v-10.37857c0,-0.95593 0.81774,-1.64031 1.77367,-1.64031c0.95593,-0.13658 1.77682,0.68438 1.64031,1.64031zM287.01876,216.04529c-0.13658,2.18489 -3.41397,2.18489 -3.41397,0v-6.82789c-0.13652,-0.95587 0.68438,-1.77367 1.64031,-1.77367c0.95587,0 1.77367,0.8178 1.77367,1.77367zM251.10554,214.40833c0,2.18489 -3.41391,2.18489 -3.41391,0v-3.55062c0,-0.95587 0.68438,-1.64031 1.64024,-1.64031c0.95593,-0.13652 1.77367,0.68445 1.77367,1.64031zM269.81559,209.2174c0.95593,0 1.77367,0.82102 1.77367,1.77696v3.27727c0,2.32147 -3.41391,2.32147 -3.41391,0v-3.27727c0,-0.95593 0.68426,-1.64018 1.5036,-1.77696zM292.07299,214.40833c0,2.18489 -3.41391,2.18489 -3.41391,0v-3.55062c0,-0.95587 0.68103,-1.64031 1.63695,-1.64031c0.95587,0 1.77696,0.68445 1.77696,1.64031z" data-paper-data="{&quot;isPathIcon&quot;:true}" style="fill: #01F0C8;"></path></g></svg>